# xmcd
#
# Track frame offsets:
#	150
#	7810
#	13602
#	21367
#	27330
#	44942
#	77670
#	91927
#	101380
#	106717
#	116412
#	144937
#	148942
#	159237
#	168355
#	192137
#	203790
#	213082
#
# Disc length: 2925 seconds
#
# Revision: 1
# Processed by: cddbd v1.5.1PL0 Copyright (c) Steve Scherf et al.
# Submitted via: CDex 1.50Beta5
#
DISCID=de0b6b12
DTITLE=由紀さおり - あの時,この歌-由紀さおり,安田祥子 童謡を歌う- Disc 1
DYEAR=1900
DGENRE=
TTITLE0=おぼろ月夜
TTITLE1=かもめの水兵さん
TTITLE2=嬉しいひなまつり
TTITLE3=夕日
TTITLE4=叱られて
TTITLE5=花かげ
TTITLE6=ちんちん千鳥
TTITLE7=故郷
TTITLE8=たき火
TTITLE9=夕やけ小やけ
TTITLE10=どこかで春が
TTITLE11=雪
TTITLE12=浜千鳥
TTITLE13=ゆりかごのうた
TTITLE14=かごめかごめ
TTITLE15=赤いくつ
TTITLE16=雨降りお月
TTITLE17=あの町この町
EXTD=
EXTT0=
EXTT1=
EXTT2=
EXTT3=
EXTT4=
EXTT5=
EXTT6=
EXTT7=
EXTT8=
EXTT9=
EXTT10=
EXTT11=
EXTT12=
EXTT13=
EXTT14=
EXTT15=
EXTT16=
EXTT17=
PLAYORDER=
